<svg width="65" height="70" viewBox="0 0 65 70" fill="none" xmlns="http://www.w3.org/2000/svg">
<path d="M0 62.5663C0 58.2607 3.47458 55.1325 8.21708 55.1325C12.9596 55.1325 16.4342 58.2607 16.4342 62.5663C16.4342 66.8718 12.9596 70 8.21708 70C3.47458 70 0 66.8718 0 62.5663ZM11.4831 62.5663C11.4831 60.3514 10.0261 59.0117 8.21708 59.0117C6.40808 59.0117 4.95111 60.3514 4.95111 62.5663C4.95111 64.7811 6.40808 66.1208 8.21708 66.1208C10.0261 66.1208 11.4831 64.7811 11.4831 62.5663Z" fill="#015B5B"/>
<path d="M33.9439 55.1325V70H29.7229L23.9373 63.2472V70H18.9341V55.1325H23.1551L28.9406 61.8852V55.1325H33.9439Z" fill="#015B5B"/>
<path d="M49.41 66.2195V70H36.7502V55.1325H49.1264V58.913H41.7959V60.6537H48.2333V64.2656H41.7959V66.2195H49.41Z" fill="#015B5B"/>
<path d="M62.2163 64.291H58.7841V67.5401H55.039V64.291H51.6068V60.8383H55.039V57.5892H58.7841V60.8383H62.2163V64.291Z" fill="#F9D36B"/>
<path d="M50.8476 24.4206V35.5426L29.8307 47.3901L8.81702 35.5458V24.5861L14.407 27.7365V32.3921L29.8307 41.0861L45.2544 32.3921V27.5742L50.8476 24.4206Z" fill="#015B5B"/>
<path d="M58.0217 33.2036V25.1111L55.4304 23.6505V33.2036H54.9154V39.2308H58.5367V33.2036H58.0217Z" fill="#F9D36B"/>
<path d="M40.0718 21.267L29.8273 27.0428L24.2406 23.8923L40.0489 14.982L34.4622 11.8348C34.4622 11.8348 32.5489 12.6304 30.6454 12.6049C29.3808 12.5954 28.015 12.2803 26.9036 11.2811L24.0092 12.9104L28.2856 15.3194L18.6637 20.7419L11.444 16.6718L29.8436 6.30086L40.0587 12.0575L45.6487 8.90712L29.8436 0L0.267334 16.6718L29.8469 33.3436L45.6748 24.4238L40.0848 21.2733L40.0718 21.267Z" fill="#015B5B"/>
<path d="M48.2302 16.6718L42.6663 19.8063L48.2563 22.9567L53.8202 19.819L59.4101 22.9695L65.0001 19.8222L59.4134 16.6718L64.9968 13.5182L59.4101 10.3678L53.8202 13.5182L48.227 10.3678L42.6403 13.5182L48.2302 16.6718Z" fill="#F9D36B"/>
</svg>
