<svg width="35" height="33" viewBox="0 0 35 33" fill="none" xmlns="http://www.w3.org/2000/svg">
<path d="M26.1169 5.69355C26.5715 5.15377 26.5051 4.343 25.9308 3.93292C23.3518 2.09145 20.2749 1.05147 17.0881 0.960868C13.4742 0.858128 9.93197 1.98238 7.03875 4.15042C4.14553 6.31845 2.07186 9.40245 1.15568 12.8998C0.239502 16.3972 0.53482 20.1018 1.99351 23.4099C3.4522 26.7179 5.98827 29.4345 9.18842 31.1167C12.3886 32.799 16.0642 33.3479 19.6162 32.6739C23.1682 31.9999 26.3872 30.1428 28.7487 27.4052C30.8311 24.9912 32.1384 22.018 32.5181 18.8719C32.6027 18.1713 32.0488 17.5754 31.3437 17.547C30.6386 17.5186 30.0502 18.0688 29.955 18.768C29.6053 21.3366 28.5187 23.7594 26.8136 25.736C24.8293 28.0363 22.1244 29.5968 19.1398 30.1632C16.1551 30.7295 13.0666 30.2683 10.3776 28.8547C7.68854 27.4411 5.55754 25.1585 4.33184 22.3788C3.10613 19.5991 2.85799 16.4862 3.62783 13.5474C4.39768 10.6087 6.14013 8.01725 8.57124 6.1955C11.0023 4.37375 13.9788 3.42907 17.0155 3.5154C19.6248 3.58958 22.1465 4.42125 24.2788 5.89541C24.8593 6.29672 25.6623 6.23333 26.1169 5.69355Z" fill="url(#paint0_linear_1053_3804)"/>
<path d="M32.6332 5.94867L16.9915 21.6712L9.88171 14.5246" stroke="url(#paint1_linear_1053_3804)" stroke-width="3.51601" stroke-linecap="round" stroke-linejoin="round"/>
<defs>
<linearGradient id="paint0_linear_1053_3804" x1="1.60485" y1="0.954407" x2="31.662" y2="32.2687" gradientUnits="userSpaceOnUse">
<stop offset="0.3" stop-color="#015B5B"/>
<stop offset="1" stop-color="#009A9A"/>
</linearGradient>
<linearGradient id="paint1_linear_1053_3804" x1="10.5724" y1="5.94867" x2="24.1892" y2="26.4772" gradientUnits="userSpaceOnUse">
<stop offset="0.3" stop-color="#015B5B"/>
<stop offset="1" stop-color="#009A9A"/>
</linearGradient>
</defs>
</svg>
